<?xml version="1.0" encoding="utf-8"?>
<!-- Generator: Adobe Illustrator 24.0.1, SVG Export Plug-In . SVG Version: 6.00 Build 0)  -->
<svg version="1.1" id="Layer_2" xmlns="http://www.w3.org/2000/svg" xmlns:xlink="http://www.w3.org/1999/xlink" x="0px" y="0px"
	 viewBox="0 0 2000 2000" style="enable-background:new 0 0 2000 2000;" xml:space="preserve">
<style type="text/css">
	.st0{opacity:0.1;fill:#EDEBE9;}
	.st1{fill:url(#SVGID_1_);}
	.st2{opacity:0.4;fill:#33344A;}
	.st3{fill:#33344A;}
	.st4{fill:#979593;}
	.st5{fill:#252423;}
	.st6{fill:#6264A7;}
</style>
<g id="art">
	<path class="st0" d="M1296.608,1677.373c0,26.5-147.347,47.98-329.108,47.98s-329.109-21.48-329.109-47.98
		s147.348-47.982,329.109-47.982S1296.608,1650.873,1296.608,1677.373z"/>
	<linearGradient id="SVGID_1_" gradientUnits="userSpaceOnUse" x1="967.4995" y1="1725.3535" x2="967.4995" y2="-9.094947e-13">
		<stop  offset="0" style="stop-color:#EDEBE9"/>
		<stop  offset="1" style="stop-color:#DCD9D5"/>
	</linearGradient>
	<path class="st1" d="M1296.441,1675.863L1065.707,0H910.865L641.19,1671.094c-1.843,2.055-2.799,4.15-2.799,6.279
		c0,26.5,147.348,47.98,329.109,47.98s329.108-21.48,329.108-47.98C1296.608,1676.867,1296.548,1676.365,1296.441,1675.863z"/>
	<path id="Shadow" class="st2" d="M1152.583,1681.627c0,10.159-78.562,18.392-175.472,18.392
		c-96.907,0-175.469-8.232-175.469-18.392c0-10.162,78.562-18.398,175.469-18.398
		C1074.021,1663.229,1152.583,1671.465,1152.583,1681.627z"/>
	<path class="st3" d="M1480.562,1018.322c8.909,109.012,8.217,151.55,8.217,151.55l-5.618,0.08
		c1.766,9.205,4.205,19.89,3.953,24.228c-0.439,7.574-6.076,19.654-7.997,24.065c-1.923,4.417-19.354,13.692-21.71,14.268
		c-2.357,0.579-4.01,0.458-3.201-3.474c0.804-3.932,13.027-10.898,14.943-17.973c1.916-7.078,1.193-19.877,1.193-19.877
		s-7.326,30.584-10.787,25.297c-0.561-0.855,0.575-30.44,2.133-46.228l-4.137,0.059c0,0-8.217-20.54-18.891-49.875
		c0.196,32.996-0.246,54.723-0.246,54.723l-10.404-0.077c-4.79,41.854-10.435,107.079-8.244,168.656
		c3.037,85.499,0.344,171.277-0.82,182.83l-7.916,0.014l0.488,26.904h0.955l13.877,33.991v12.024h-50.941v-12.024l6.009-33.991
		l-1.417-26.849l-4.592,0.008c-0.373-22.511-5.209-103.94-14.748-177.249c-5.421-41.665-11.791-84.948-17.566-122.379
		c-5.769,37.389-12.13,80.616-17.547,122.237c-9.55,73.366-14.396,154.869-14.765,177.392l-4.595-0.008l-1.417,26.849h0.002
		l6.01,33.991v12.024h-50.946v-12.024l13.878-33.991h0.953l0.489-26.904l-7.914-0.014c-1.156-11.578-7.406-95.686-0.662-181.693
		c-2.358-62.993-7.179-129.195-10.564-171.07l-8.231-0.061c0,0,0.767-29.242,2.151-70.782c-13.551,38.333-25.161,67.35-25.161,67.35
		l-3.909-0.056c1.555,15.789,2.693,45.369,2.132,46.225c-3.462,5.287-10.787-25.297-10.787-25.297s-0.722,12.799,1.192,19.877
		c1.916,7.074,14.141,14.041,14.945,17.973c0.808,3.932-0.845,4.053-3.203,3.474c-2.356-0.575-19.786-9.851-21.709-14.268
		c-1.92-4.411-7.557-16.491-7.998-24.065c-0.252-4.337,2.186-15.02,3.952-24.224l-5.839-0.083c0,0,2.859-42.304,8.217-151.55
		c5.675-115.746,41.172-160.718,62.852-177.535c1.237-1.22,3.625-2.864,6.8-4.711c1.896-1.157,3.576-2.049,5.003-2.736
		c12.747-6.594,32.376-14.288,46.158-15.145c0.064-0.004,0.124-0.009,0.188-0.013l1.47-17.982c-3.179-2.171-5.991-4.426-7.769-6.141
		c-3.881-3.741-6.963-13.597-8.521-18.757c-2.264-7.488-1.117-20.339-1.117-20.339s0.001,0.005,0.002,0.005
		c0.168-5.566,0.402-13.045,0.508-16.423l-5.936,6.247l-21.63-44.934l40.815-37.101l54.453,4.532l-21.948,23.099l34.278,17.716
		l-6.319,40.286l-6.757-7.926c0.158,4.207,0.414,11.083,0.581,15.792c0.024,0.369,0.142,2.357,0.164,5.041c0,0.004,0,0.013,0,0.017
		c0,0.001,0,0.002,0,0.003c0.034,4.262-0.178,10.254-1.41,14.263c-1.611,5.228-4.657,14.587-8.649,18.323
		c-1.823,1.707-4.58,3.923-7.678,6.068l1.49,18.235c0,0-0.034,0.028-0.083,0.068c5.008,1.766,24.49,5.664,39.63,13.03
		C1398.431,831.331,1467.119,853.902,1480.562,1018.322z M1801.065,1173.887c0,0-8.316-38.59-16.396-137.476
		c-12.204-149.243-67.971-171.043-67.971-171.043v0.001c-0.255-0.171-0.507-0.345-0.768-0.509
		c1.404-50.345-15.834-106.053-15.834-106.053l0,0c-1.259-5.692-3.582-10.933-7.616-14.536c-20.905-18.675-48.059-9-57.146,8.549
		c-1.023,1.976-1.812,4.128-2.426,6.362c-23.652,56.055-67.795,137.674-59.649,174.413c-9.05,25.656-17.328,60.359-21.887,106.822
		c-9.691,98.738-18.109,133.471-18.109,133.471l6.636,0.094c-1.433,8.398-4.285,20.003-4.037,24.293
		c0.374,6.42,5.153,16.662,6.781,20.402c1.63,3.744,16.406,11.605,18.404,12.095c1.999,0.491,3.399,0.39,2.715-2.945
		c-0.682-3.333-11.047-9.239-12.67-15.236c-1.624-6.001-1.011-16.851-1.011-16.851s6.21,25.928,9.146,21.444
		c0.489-0.749-0.555-27.514-1.943-40.495c-0.096-0.898-0.258-1.704-0.447-2.467l4.75,0.067c0,0,21.725-54.295,39.189-109.951
		c-0.344,2.029-0.698,4.059-1.074,6.091c-21.924,118.621-17.245,247.106-17.245,247.106l24.624,0.182
		c0.065,59.84-12.504,68.617,0.247,167.88l1.638,36.277h-2.259l-7.354,30.836v10.908h40.251v-10.908l-7.027-30.836h-0.344
		c1.526-27.171,5.669-92.744,15.345-203.857l43.414,0.322c9.656,110.918,13.793,176.391,15.317,203.536h-0.345l-7.026,30.836v10.908
		h40.251v-10.908l-7.354-30.836h-2.18l1.556-36.277c12.688-98.753,0.31-107.945,0.248-166.958l23.924,0.177
		c0,0,1.955-114.88-12.587-226.193c15.042,44.416,29.946,81.665,29.946,81.665l4.954-0.07c-0.19,0.764-0.352,1.57-0.448,2.47
		c-1.389,12.981-2.434,39.746-1.942,40.495c2.936,4.483,9.145-21.444,9.145-21.444s0.612,10.85-1.01,16.851
		c-1.625,5.997-11.988,11.903-12.671,15.236c-0.686,3.335,0.716,3.437,2.715,2.945c1.998-0.489,16.775-8.351,18.404-12.095
		c1.63-3.74,6.407-13.982,6.781-20.402c0.25-4.291-2.604-15.897-4.036-24.296L1801.065,1173.887z M770.82,1171.516l-7.143,0.102
		c1.59,9.204,4.657,21.739,4.386,26.404c-0.41,7.056-5.662,18.311-7.451,22.42c-1.791,4.115-18.029,12.756-20.225,13.293
		c-2.197,0.539-3.736,0.427-2.984-3.237c0.75-3.663,12.14-10.153,13.924-16.743c1.784-6.595,1.11-18.518,1.11-18.518
		s-6.823,28.492-10.05,23.566c-0.538-0.824,0.61-30.236,2.135-44.501c0.093-0.871,0.243-1.661,0.417-2.416l-5.225,0.075
		c0,0-23.857-59.624-43.035-120.742c0.377,2.228,0.767,4.457,1.179,6.688c24.077,130.265,18.938,271.357,18.938,271.357
		l-27.042,0.201c-0.072,65.718,13.731,75.353-0.269,184.365l-1.711,37.84h0.001l10.467,35.859v11.979h-44.201v-11.979l7.982-35.859
		h0c-1.762-30.985-6.343-102.499-16.74-221.875l-47.679,0.354c-10.374,119.163-14.948,190.566-16.708,221.521l7.984,35.859v11.979
		h-44.203v-11.979l10.384-35.859h0l-1.624-37.84c-13.93-108.45-0.34-118.542-0.268-183.35l-26.277,0.195
		c0,0-2.143-126.172,13.83-248.42c-16.521,48.786-32.893,89.705-32.893,89.705l-5.445-0.078c0.174,0.755,0.325,1.547,0.418,2.419
		c1.525,14.265,2.674,43.677,2.135,44.501c-3.227,4.926-10.051-23.566-10.051-23.566s-0.672,11.923,1.111,18.518
		c1.785,6.59,13.174,13.08,13.923,16.743c0.754,3.664-0.786,3.776-2.983,3.237c-2.195-0.537-18.435-9.178-20.225-13.293
		c-1.791-4.109-7.041-15.364-7.451-22.42c-0.272-4.665,2.796-17.202,4.386-26.407l-6.919-0.099c0,0,9.132-42.375,18.006-150.969
		c13.391-163.802,74.574-187.806,74.642-187.832c12.015-8.06,29.689-9.644,37.139-11.527l1.977-24.183
		c-9.482-8.207-17.495-21.387-18.543-30.241c-1.519-0.65-2.758-1.935-3.721-3.571c-2.287,1.627-3.448,4.557-2.674,7.418
		c0.99,3.677,4.787,5.863,8.463,4.877c0.158-0.044,0.319-0.089,0.469-0.144c0,0,0.656,1.935,0.854,1.862
		c-0.257,0.098-0.521,0.182-0.79,0.256c-4.769,1.282-9.695-1.548-10.98-6.319c-1.028-3.821,0.598-7.739,3.742-9.804
		c-2.144-5.147-2.166-12.194-0.181-14.837c0.664-0.886,1.367-1.469,2.067-1.852c-1.568-11.595-2.902-34.491,8.772-44.921
		c22.961-20.508,52.776-9.884,62.759,9.386c6.101,11.788,4.865,29.164,3.97,36.561c0.243,0.244,0.484,0.512,0.72,0.825
		c1.945,2.59,1.966,9.412-0.051,14.527c3.479,1.96,5.345,6.089,4.262,10.114c-1.283,4.771-6.209,7.602-10.979,6.319
		c-0.227-0.062-0.443-0.128-0.666-0.205l0.057-0.135c-3.398,7.59-9.346,14.934-15.716,20.101l1.958,23.964
		c14.927,0.927,30.998,3.124,40.662,12.954l0-0.002c0,0,52.794,35.973,67.988,190.804
		C761.572,1133.377,770.82,1171.516,770.82,1171.516z M662.492,762.881c-0.922,1.667-2.115,3.005-3.585,3.736
		c-0.234,3.029-1.071,6.168-2.349,9.286l0.229-0.539c0.128,0.045,0.261,0.086,0.391,0.123c3.677,0.987,7.477-1.199,8.466-4.877
		C666.468,767.557,665.09,764.422,662.492,762.881z M358.064,1521.877l-0.454-20.715v-15.561h-29.514l1.283,15.562l1.275,20.713
		h-0.514l-4.805,30.832v10.91h46.214v-10.91l-12.591-30.832H358.064z M261.392,1521.877l1.277-20.713l1.282-15.562h-29.517v15.561
		l-0.456,20.715h-0.891l-12.591,30.832v10.91h46.214v-10.91l-4.771-30.832H261.392z M364.399,863.376
		c0.902-5.627,0.246-11.753-2.789-18.299c-5.158-11.126-21.728-17.127-41.6-19.109c5.259-6.278,9.222-13.849,9.758-20.784
		c5.489-2.732,6.745-14.805,4.104-18.325c-0.214-0.285-0.433-0.529-0.654-0.75c0.816-6.738,1.94-22.556-3.616-33.287
		c-9.088-17.551-44.922-34.198-55.359-27.863c-10.435,6.335,7.115,16.213,2.273,18.226c-4.847,2.012-9.188-9.283-12.284-6.759
		c-9.71,7.903-3.624,36.535-0.359,49.133c-0.438,0.327-0.872,0.745-1.289,1.3c-2.685,3.58-1.342,16.008,4.388,18.458
		c0.735,6.201,5.22,14.727,11.183,21.74c-28.242,3.966-52.539,14.063-52.203,27.487c0.095,3.798,1.125,7.454,2.844,10.945
		c-15.422,14.484-48.239,57.982-57.471,170.925c-8.086,98.883-7.456,137.469-7.456,137.469l4.454,0.063
		c-1.579,8.081-3.58,17.073-3.362,20.831c0.4,6.893,5.529,17.885,7.277,21.899c1.749,4.019,17.612,12.459,19.756,12.982
		c2.146,0.526,3.647,0.417,2.912-3.161c-0.731-3.577-11.854-9.918-13.598-16.354c-1.744-6.44-1.086-18.089-1.086-18.089
		s6.666,27.832,9.816,23.021c0.497-0.756-0.467-26.23-1.825-40.846l3.98,0.057c0,0,8.961-22.396,19.997-53.157
		c-1.85,34.339-2.638,57.557-2.638,57.557l9.44-0.07c4.346,37.966,9.467,97.134,7.481,152.994
		c-2.757,77.557-0.314,143.439,0.739,153.92l39.497,0.072c0.338-20.418,4.723-82.359,13.379-148.861
		c4.917-37.794,10.695-77.057,15.934-111.012c5.233,33.917,11.004,73.13,15.918,110.885c8.661,66.547,13.058,128.553,13.394,148.988
		l39.494-0.072c1.049-10.496,6.72-74.873,0.602-152.895c2.139-57.141,6.512-117.194,9.582-155.179l7.467-0.055
		c0,0-1.968-30.573-4.906-72.631c13.509,38.855,25.777,69.516,25.777,69.516l3.774-0.054c-1.354,14.616-2.319,40.087-1.823,40.843
		c3.15,4.812,9.815-23.021,9.815-23.021s0.656,11.648-1.086,18.089c-1.743,6.437-12.867,12.777-13.6,16.354
		c-0.734,3.578,0.769,3.688,2.915,3.161c2.145-0.523,18.006-8.964,19.755-12.982c1.747-4.015,6.877-15.007,7.278-21.899
		c0.218-3.757-1.782-12.748-3.361-20.828l4.656-0.066c0,0,0.628-38.586-7.455-137.469
		C414.489,917.352,378.543,875.455,364.399,863.376z"/>
	<g id="_x30_3_Front_7_">
		<path class="st4" d="M901.638,1593.362l36.802,0.003l-2.85,54.015l-34.76-9.486L901.638,1593.362z M1062.205,1593.362l-36.8,0.003
			l2.851,54.015l34.756-9.486L1062.205,1593.362z"/>
		<path class="st5" d="M1072.588,1380.108c3.593,101.105,0.407,202.54-0.97,216.201l-51.483,0.092
			c-0.441-26.619-6.159-122.912-17.441-209.602c-6.411-49.27-13.943-100.453-20.772-144.718
			c-6.821,44.214-14.344,95.331-20.75,144.549c-11.292,86.758-17.023,183.137-17.459,209.771l-51.486-0.092
			c-1.368-13.691-8.759-113.15-0.784-214.856c-4.554-121.672-16.88-253.486-16.88-253.486
			c15.361-38.419,75.573-25.736,107.358-15.927c31.786-9.809,91.998-22.492,107.358,15.927
			C1089.279,1127.967,1068.313,1259.927,1072.588,1380.108z"/>
		<path class="st6" d="M936.606,1628.142l7.107,40.195v14.22h-60.245v-14.22l16.411-40.195H936.606z M1063.964,1628.142h-36.724
			l-7.105,40.195v14.22h60.24v-14.22L1063.964,1628.142z"/>
		<path class="st4" d="M846.234,1244.468c0.955,4.649-0.999,4.792-3.787,4.107c-2.787-0.681-23.398-11.649-25.672-16.872
			c-2.271-5.217-8.937-19.502-9.458-28.458c-0.52-8.955,8.66-40.791,6.369-46.235c-2.287-5.445,11.908,0.456,11.908,0.456
			s10.139,1.94,11.604,15.671c1.934,18.108,3.393,55.441,2.708,56.486c-4.094,6.252-12.756-29.914-12.756-29.914
			s-0.854,15.136,1.41,23.506C830.826,1231.58,845.282,1239.817,846.234,1244.468z M1145.861,1157.01
			c2.288-5.445-11.908,0.456-11.908,0.456s-10.139,1.94-11.604,15.671c-1.936,18.108-3.394,55.441-2.709,56.486
			c4.094,6.252,12.756-29.914,12.756-29.914s0.855,15.136-1.41,23.506c-2.266,8.365-16.721,16.603-17.672,21.253
			c-0.956,4.649,0.998,4.792,3.786,4.107c2.786-0.681,23.399-11.649,25.673-16.872c2.271-5.217,8.937-19.502,9.457-28.458
			C1152.75,1194.29,1143.568,1162.454,1145.861,1157.01z"/>
		<path class="st6" d="M1154.198,1174.501l-36.927,0.526c0,0-9.715-24.28-22.339-58.975c0.232,39.017-0.291,64.708-0.291,64.708
			l-225.425-1.675c0,0,0.906-34.578,2.544-83.698c-16.024,45.33-29.753,79.64-29.753,79.64l-36.922-0.526
			c0,0,3.382-50.025,9.717-179.212c6.713-136.897,48.703-190.073,74.338-209.952c1.461-1.437,4.265-3.368,7.99-5.537
			c2.286-1.396,4.315-2.473,6.025-3.295c15.075-7.789,38.24-16.861,54.511-17.872c20.048-1.246,27.33-6.362,42.458,0
			c5.505,2.046,29.007,6.667,47.174,15.514c2.075,0.711,81.485,29.132,97.183,221.141
			C1155.018,1124.198,1154.198,1174.501,1154.198,1174.501z"/>
		<path class="st3" d="M934.037,677.31c0,0-5.306-29.424,4.11-47.611c11.847-22.883,47.346-34.767,74.496-11.143
			c17.44,15.174,9.004,61.671,9.004,61.671l-59.433-25.264L934.037,677.31z"/>
		<path class="st4" d="M1019.792,694.029c-1.245,10.511-10.756,26.156-22.011,35.899l2.344,28.706c0,0-16.518,14.208-42.458,0
			l2.324-28.445c-11.062-8.975-21.067-23.491-22.058-36.333c-7.156-3.561-8.792-19.299-5.353-23.882
			c2.252-3.005,4.882-3.173,6.7-2.786c0.166-2.725,0.278-4.545,0.278-4.545c0-21.804,17.613-36.073,39.338-36.073
			c21.728,0,39.338,14.269,39.338,36.073c0,0,0.114,1.852,0.283,4.614c1.82-0.467,4.62-0.455,6.999,2.717
			C1029.013,674.635,1027.26,690.835,1019.792,694.029z"/>
	</g>
</g>
</svg>
