<svg width="424" height="61" viewBox="0 0 424 61" fill="none" xmlns="http://www.w3.org/2000/svg">
<path d="M0 56H419V59H0V56Z" fill="#6264A7"/>
<path d="M420.476 61C419.51 61 418.69 60.663 418.014 59.9889C417.338 59.2975 417 58.4765 417 57.5259C417 56.558 417.338 55.7284 418.014 55.037C418.69 54.3457 419.51 54 420.476 54C421.457 54 422.286 54.3457 422.962 55.037C423.654 55.7284 424 56.558 424 57.5259C424 58.4765 423.654 59.2975 422.962 59.9889C422.286 60.663 421.457 61 420.476 61Z" fill="#6264A7"/>
<path d="M71.0098 30.8721V24.3096C72.1992 25.3076 73.4912 26.0596 74.8857 26.5654C76.2803 27.0576 77.6885 27.3037 79.1104 27.3037C79.9443 27.3037 80.6689 27.2285 81.2842 27.0781C81.9131 26.9277 82.4326 26.7227 82.8428 26.4629C83.2666 26.1895 83.5811 25.875 83.7861 25.5195C83.9912 25.1504 84.0938 24.7539 84.0938 24.3301C84.0938 23.7559 83.9297 23.2432 83.6016 22.792C83.2734 22.3408 82.8223 21.9238 82.248 21.541C81.6875 21.1582 81.0176 20.7891 80.2383 20.4336C79.459 20.0781 78.6182 19.7158 77.7158 19.3467C75.4189 18.3896 73.7031 17.2207 72.5684 15.8398C71.4473 14.459 70.8867 12.791 70.8867 10.8359C70.8867 9.30469 71.1943 7.99219 71.8096 6.89844C72.4248 5.79102 73.2588 4.88184 74.3115 4.1709C75.3779 3.45996 76.6084 2.94043 78.0029 2.6123C79.3975 2.27051 80.874 2.09961 82.4326 2.09961C83.9639 2.09961 85.3174 2.19531 86.4932 2.38672C87.6826 2.56445 88.7764 2.84473 89.7744 3.22754V9.35938C89.2822 9.01758 88.7422 8.7168 88.1543 8.45703C87.5801 8.19727 86.9854 7.98535 86.3701 7.82129C85.7549 7.64355 85.1396 7.51367 84.5244 7.43164C83.9229 7.34961 83.3486 7.30859 82.8018 7.30859C82.0498 7.30859 81.3662 7.38379 80.751 7.53418C80.1357 7.6709 79.6162 7.86914 79.1924 8.12891C78.7686 8.38867 78.4404 8.70312 78.208 9.07227C77.9756 9.42773 77.8594 9.83105 77.8594 10.2822C77.8594 10.7744 77.9893 11.2188 78.249 11.6152C78.5088 11.998 78.8779 12.3672 79.3564 12.7227C79.835 13.0645 80.416 13.4062 81.0996 13.748C81.7832 14.0762 82.5557 14.418 83.417 14.7734C84.5928 15.2656 85.6455 15.792 86.5752 16.3525C87.5186 16.8994 88.3252 17.5215 88.9951 18.2188C89.665 18.916 90.1777 19.7158 90.5332 20.6182C90.8887 21.5068 91.0664 22.5459 91.0664 23.7354C91.0664 25.376 90.752 26.7568 90.123 27.8779C89.5078 28.9854 88.667 29.8877 87.6006 30.585C86.5342 31.2686 85.29 31.7607 83.8682 32.0615C82.46 32.3623 80.9697 32.5127 79.3975 32.5127C77.7842 32.5127 76.2461 32.376 74.7832 32.1025C73.334 31.8291 72.0762 31.4189 71.0098 30.8721Z" fill="#252423"/>
<path d="M106.898 31.7539C105.941 32.2598 104.499 32.5127 102.571 32.5127C98.0049 32.5127 95.7217 30.1406 95.7217 25.3965V15.7783H92.3174V11H95.7217V6.46777L102.182 4.62207V11H106.898V15.7783H102.182V24.2686C102.182 26.4561 103.05 27.5498 104.786 27.5498C105.47 27.5498 106.174 27.3516 106.898 26.9551V31.7539Z" fill="#252423"/>
<path d="M128.042 32H121.91V28.9854H121.828C120.42 31.3369 118.335 32.5127 115.573 32.5127C113.536 32.5127 111.93 31.9385 110.754 30.79C109.592 29.6279 109.011 28.083 109.011 26.1553C109.011 22.0811 111.424 19.7295 116.25 19.1006L121.951 18.3418C121.951 16.0449 120.707 14.8965 118.219 14.8965C115.717 14.8965 113.338 15.6416 111.082 17.1318V12.251C111.984 11.7861 113.215 11.376 114.773 11.0205C116.346 10.665 117.774 10.4873 119.06 10.4873C125.048 10.4873 128.042 13.4746 128.042 19.4492V32ZM121.951 23.4688V22.0537L118.137 22.5459C116.031 22.8193 114.979 23.7695 114.979 25.3965C114.979 26.1348 115.231 26.7432 115.737 27.2217C116.257 27.6865 116.954 27.9189 117.829 27.9189C119.046 27.9189 120.037 27.502 120.803 26.668C121.568 25.8203 121.951 24.7539 121.951 23.4688Z" fill="#252423"/>
<path d="M146.868 16.8447C146.089 16.4209 145.18 16.209 144.141 16.209C142.732 16.209 141.632 16.7285 140.839 17.7676C140.046 18.793 139.649 20.1943 139.649 21.9717V32H133.169V11H139.649V14.8965H139.731C140.757 12.0527 142.603 10.6309 145.269 10.6309C145.952 10.6309 146.485 10.7129 146.868 10.877V16.8447Z" fill="#252423"/>
<path d="M163.828 31.7539C162.871 32.2598 161.429 32.5127 159.501 32.5127C154.935 32.5127 152.651 30.1406 152.651 25.3965V15.7783H149.247V11H152.651V6.46777L159.111 4.62207V11H163.828V15.7783H159.111V24.2686C159.111 26.4561 159.979 27.5498 161.716 27.5498C162.399 27.5498 163.104 27.3516 163.828 26.9551V31.7539Z" fill="#252423"/>
<path d="M199.102 11L190.57 33.6816C188.52 39.1367 185.43 41.8643 181.301 41.8643C179.729 41.8643 178.437 41.6865 177.425 41.3311V36.1631C178.286 36.6689 179.223 36.9219 180.234 36.9219C181.902 36.9219 183.064 36.1357 183.721 34.5635L184.828 31.959L176.297 11H183.475L187.392 23.7764C187.638 24.5693 187.829 25.5059 187.966 26.5859H188.048C188.171 25.793 188.396 24.8701 188.725 23.8174L192.683 11H199.102Z" fill="#252423"/>
<path d="M211.304 32.5127C207.804 32.5127 205.049 31.5352 203.039 29.5801C201.043 27.6113 200.045 24.9453 200.045 21.582C200.045 18.1094 201.084 15.3955 203.162 13.4404C205.24 11.4717 208.05 10.4873 211.591 10.4873C215.077 10.4873 217.812 11.4717 219.794 13.4404C221.776 15.3955 222.768 17.9863 222.768 21.2129C222.768 24.6992 221.742 27.4541 219.691 29.4775C217.654 31.501 214.858 32.5127 211.304 32.5127ZM211.468 15.4502C209.937 15.4502 208.747 15.9766 207.899 17.0293C207.052 18.082 206.628 19.5723 206.628 21.5C206.628 25.5332 208.255 27.5498 211.509 27.5498C214.612 27.5498 216.164 25.4785 216.164 21.3359C216.164 17.4121 214.599 15.4502 211.468 15.4502Z" fill="#252423"/>
<path d="M246.926 32H240.466V28.8008H240.363C238.764 31.2754 236.624 32.5127 233.944 32.5127C229.077 32.5127 226.644 29.5664 226.644 23.6738V11H233.104V23.0996C233.104 26.0664 234.279 27.5498 236.631 27.5498C237.793 27.5498 238.723 27.1465 239.42 26.3398C240.117 25.5195 240.466 24.4121 240.466 23.0176V11H246.926V32Z" fill="#252423"/>
<path d="M266.101 16.8447C265.321 16.4209 264.412 16.209 263.373 16.209C261.965 16.209 260.864 16.7285 260.071 17.7676C259.278 18.793 258.882 20.1943 258.882 21.9717V32H252.401V11H258.882V14.8965H258.964C259.989 12.0527 261.835 10.6309 264.501 10.6309C265.185 10.6309 265.718 10.7129 266.101 10.877V16.8447Z" fill="#252423"/>
<path d="M279.369 31.4463V26.1963C280.436 26.8389 281.495 27.3174 282.548 27.6318C283.614 27.9463 284.619 28.1035 285.562 28.1035C286.711 28.1035 287.613 27.9463 288.27 27.6318C288.939 27.3174 289.274 26.8389 289.274 26.1963C289.274 25.7861 289.124 25.4443 288.823 25.1709C288.522 24.8975 288.133 24.6582 287.654 24.4531C287.189 24.248 286.677 24.0635 286.116 23.8994C285.556 23.7354 285.016 23.5508 284.496 23.3457C283.662 23.0312 282.924 22.6963 282.281 22.3408C281.652 21.9717 281.119 21.5479 280.682 21.0693C280.258 20.5908 279.93 20.0371 279.697 19.4082C279.479 18.7793 279.369 18.0342 279.369 17.1729C279.369 15.9971 279.622 14.9854 280.128 14.1377C280.647 13.29 281.331 12.5996 282.179 12.0664C283.04 11.5195 284.018 11.123 285.111 10.877C286.219 10.6172 287.367 10.4873 288.557 10.4873C289.486 10.4873 290.43 10.5625 291.387 10.7129C292.344 10.8496 293.287 11.0547 294.217 11.3281V16.332C293.396 15.8535 292.515 15.498 291.571 15.2656C290.642 15.0195 289.726 14.8965 288.823 14.8965C288.399 14.8965 287.996 14.9375 287.613 15.0195C287.244 15.0879 286.916 15.1973 286.629 15.3477C286.342 15.4844 286.116 15.6689 285.952 15.9014C285.788 16.1201 285.706 16.373 285.706 16.6602C285.706 17.043 285.829 17.3711 286.075 17.6445C286.321 17.918 286.643 18.1572 287.039 18.3623C287.436 18.5537 287.873 18.7314 288.352 18.8955C288.844 19.0459 289.329 19.2031 289.808 19.3672C290.669 19.668 291.448 19.9961 292.146 20.3516C292.843 20.707 293.438 21.124 293.93 21.6025C294.436 22.0811 294.818 22.6416 295.078 23.2842C295.352 23.9268 295.488 24.6924 295.488 25.5811C295.488 26.8252 295.215 27.8916 294.668 28.7803C294.135 29.6553 293.417 30.373 292.515 30.9336C291.626 31.4805 290.594 31.877 289.418 32.123C288.256 32.3828 287.046 32.5127 285.788 32.5127C283.478 32.5127 281.338 32.1572 279.369 31.4463Z" fill="#252423"/>
<path d="M318.108 23.3457H304.409C304.628 26.3945 306.549 27.9189 310.172 27.9189C312.482 27.9189 314.513 27.3721 316.263 26.2783V30.9541C314.321 31.9932 311.799 32.5127 308.695 32.5127C305.305 32.5127 302.673 31.5762 300.8 29.7031C298.927 27.8164 297.99 25.1914 297.99 21.8281C297.99 18.3418 299.002 15.5801 301.025 13.543C303.049 11.5059 305.537 10.4873 308.49 10.4873C311.553 10.4873 313.918 11.3965 315.586 13.2148C317.268 15.0332 318.108 17.501 318.108 20.6182V23.3457ZM312.1 19.3672C312.1 16.3594 310.883 14.8555 308.449 14.8555C307.41 14.8555 306.508 15.2861 305.742 16.1475C304.99 17.0088 304.532 18.082 304.368 19.3672H312.1Z" fill="#252423"/>
<path d="M339.437 32H333.305V28.9854H333.223C331.814 31.3369 329.729 32.5127 326.968 32.5127C324.931 32.5127 323.324 31.9385 322.148 30.79C320.986 29.6279 320.405 28.083 320.405 26.1553C320.405 22.0811 322.818 19.7295 327.645 19.1006L333.346 18.3418C333.346 16.0449 332.102 14.8965 329.613 14.8965C327.111 14.8965 324.732 15.6416 322.477 17.1318V12.251C323.379 11.7861 324.609 11.376 326.168 11.0205C327.74 10.665 329.169 10.4873 330.454 10.4873C336.442 10.4873 339.437 13.4746 339.437 19.4492V32ZM333.346 23.4688V22.0537L329.531 22.5459C327.426 22.8193 326.373 23.7695 326.373 25.3965C326.373 26.1348 326.626 26.7432 327.132 27.2217C327.651 27.6865 328.349 27.9189 329.224 27.9189C330.44 27.9189 331.432 27.502 332.197 26.668C332.963 25.8203 333.346 24.7539 333.346 23.4688Z" fill="#252423"/>
<path d="M358.263 16.8447C357.483 16.4209 356.574 16.209 355.535 16.209C354.127 16.209 353.026 16.7285 352.233 17.7676C351.44 18.793 351.044 20.1943 351.044 21.9717V32H344.563V11H351.044V14.8965H351.126C352.151 12.0527 353.997 10.6309 356.663 10.6309C357.347 10.6309 357.88 10.7129 358.263 10.877V16.8447Z" fill="#252423"/>
<path d="M377.048 31.2412C375.585 32.0889 373.473 32.5127 370.711 32.5127C367.484 32.5127 364.873 31.5352 362.877 29.5801C360.881 27.625 359.883 25.1025 359.883 22.0127C359.883 18.4443 360.949 15.6348 363.082 13.584C365.229 11.5195 368.093 10.4873 371.675 10.4873C374.149 10.4873 375.94 10.8154 377.048 11.4717V16.9678C375.694 15.9561 374.184 15.4502 372.516 15.4502C370.656 15.4502 369.18 15.9971 368.086 17.0908C367.006 18.1709 366.466 19.668 366.466 21.582C366.466 23.4414 366.985 24.9043 368.024 25.9707C369.063 27.0234 370.492 27.5498 372.311 27.5498C373.924 27.5498 375.503 27.0439 377.048 26.0322V31.2412Z" fill="#252423"/>
<path d="M401.473 32H395.013V20.0645C395.013 16.9883 393.892 15.4502 391.649 15.4502C390.501 15.4502 389.571 15.8809 388.86 16.7422C388.149 17.6035 387.794 18.6973 387.794 20.0234V32H381.313V0.910156H387.794V14.1172H387.876C389.462 11.6973 391.615 10.4873 394.336 10.4873C399.094 10.4873 401.473 13.3584 401.473 19.1006V32Z" fill="#252423"/>
<path d="M409.512 32.5127C408.445 32.5127 407.557 32.1846 406.846 31.5283C406.135 30.8721 405.779 30.0654 405.779 29.1084C405.779 28.124 406.142 27.3174 406.866 26.6885C407.604 26.0596 408.521 25.7451 409.614 25.7451C410.722 25.7451 411.624 26.0664 412.321 26.709C413.032 27.3379 413.388 28.1377 413.388 29.1084C413.388 30.1064 413.025 30.9268 412.301 31.5693C411.59 32.1982 410.66 32.5127 409.512 32.5127Z" fill="#252423"/>
</svg>
