<svg enable-background="new 0 0 336.598 281.18" viewBox="0 0 336.598 281.18" xmlns="http://www.w3.org/2000/svg"><path d="m312.703 8.038h-288.808c-5.842 0-10.596 4.754-10.596 10.596v216.732c0 5.841 4.754 10.596 10.596 10.596h121.956v22.691c0 1.815 1.094 3.453 2.771 4.148 1.679.695 3.608.312 4.893-.973l14.784-14.784 14.784 14.784c1.285 1.285 3.214 1.668 4.893.973 1.677-.695 2.771-2.333 2.771-4.148 0 0 0-10.373 0-22.691h121.956c5.842 0 10.596-4.754 10.596-10.596v-216.732c0-5.842-4.754-10.596-10.596-10.596zm-144.404 196c-12.686 0-23.008-10.324-23.008-23.008 0-12.686 10.321-23.008 23.008-23.008s23.008 10.321 23.008 23.008c0 12.684-10.322 23.008-23.008 23.008zm22.129.186c6.128-5.847 9.961-14.077 9.961-23.197 0-17.694-14.394-32.09-32.09-32.09-17.694 0-32.09 14.396-32.09 32.09 0 9.12 3.833 17.349 9.96 23.197-.195.5-.319 1.028-.319 1.573v8.526h-51.672c-.008 0-.016.002-.024.002h-19.663c-6.466-13.171-17.047-23.753-30.219-30.219v-114.213c13.171-6.466 23.753-17.048 30.219-30.219h184.536c6.953 14.115 18.859 25.427 33.301 31.641v111.37c-14.442 6.213-26.348 17.526-33.301 31.641h-68.28v-8.529c0-.545-.124-1.073-.319-1.573zm123.789 31.142c0 .835-.679 1.514-1.514 1.514h-121.956v-13.472h71.175c1.804 0 3.439-1.069 4.163-2.725 6.164-14.113 17.963-25.295 32.371-30.678 1.776-.662 2.954-2.358 2.954-4.252v-117.506c0-1.894-1.178-3.59-2.954-4.255-14.408-5.383-26.208-16.563-32.371-30.675-.724-1.656-2.358-2.725-4.163-2.725h-190.33c-1.805 0-3.439 1.069-4.163 2.725-5.783 13.25-16.265 23.731-29.517 29.517-1.653.721-2.725 2.356-2.725 4.163v120.008c0 1.807 1.071 3.441 2.725 4.163 13.252 5.783 23.734 16.265 29.517 29.517.724 1.655 2.358 2.725 4.163 2.725h28.13c.008 0 .016-.002.025-.003h46.104v13.472h-121.956c-.835 0-1.514-.679-1.514-1.514v-216.731c0-.835.679-1.514 1.514-1.514h288.809c.835 0 1.514.679 1.514 1.514v216.732zm-175.487-161.276c0-2.507 2.034-4.541 4.541-4.541h50.053c2.51 0 4.541 2.034 4.541 4.541 0 2.509-2.031 4.541-4.541 4.541h-50.053c-2.507 0-4.541-2.032-4.541-4.541zm132.66 43.468v-7.266c0-8.324-6.771-15.096-15.096-15.096h-175.991c-8.324 0-15.096 6.772-15.096 15.096v7.266c0 8.324 6.772 15.096 15.096 15.096h175.991c8.324-.001 15.096-6.773 15.096-15.096zm-197.182 0v-7.266c0-3.361 2.734-6.096 6.096-6.096h175.991c3.361 0 6.096 2.734 6.096 6.096v7.266c0 3.361-2.734 6.096-6.096 6.096h-175.992c-3.361-.001-6.095-2.735-6.095-6.096z" fill="#ffffff" stroke="ffffff"/></svg>
