<svg enable-background="new 0 0 245.349 243.023" viewBox="0 0 245.349 243.023" xmlns="http://www.w3.org/2000/svg"><path d="m227.937 222.505c-.002-.002-.002-.002-.002-.002l-59.157-83.804-36.264-51.372c-1.572-2.228-3.801-3.808-6.289-4.747v-25.506h58.142c1.815 0 3.453-1.094 4.148-2.771.695-1.679.311-3.608-.973-4.893l-14.784-14.784 14.784-14.784c1.285-1.285 1.668-3.214.973-4.893-.695-1.677-2.333-2.771-4.148-2.771 0 0-62.498 0-62.855 0-2.479 0-4.713 2.234-4.713 4.713v65.689c-2.489.939-4.718 2.519-6.289 4.747l-36.264 51.372-59.159 83.806c-1.94 2.751-2.183 6.318-.634 9.308s4.604 4.847 7.971 4.847h198.176c3.367 0 6.421-1.857 7.971-4.847s1.306-6.557-.634-9.308zm-110.093-130.001c1.409-1.995 4.586-2.29 6.493-.864.323.242.61.534.842.864 0 0 34.082 48.283 34.082 48.283l-15.302 15.3-19.274-19.274c-.877-.877-2.026-1.315-3.174-1.315s-2.297.438-3.174 1.315l-19.274 19.274-15.302-15.3c.001.001 33.946-48.088 34.083-48.283zm-95.421 135.177 56.083-79.45 17.382 17.38c1.754 1.754 4.595 1.754 6.349 0l19.274-19.274 19.274 19.274c.877.877 2.026 1.315 3.174 1.315 1.149 0 2.297-.438 3.174-1.315l17.382-17.38 56.083 79.45z"  fill="#ffffff" stroke="ffffff"/></svg>
