<svg enable-background="new 0 0 953.476 579.922" viewBox="0 0 953.476 579.922" xmlns="http://www.w3.org/2000/svg"><path d="m341.925 475.042c-4.788-.004-8.684 3.888-8.688 8.675-.003 4.785 3.888 8.681 8.673 8.685 2.181.002 4.171-.811 5.698-2.142l-2.948-14.768c-.861-.288-1.779-.45-2.735-.45z" fill="none"/><path d="m623 482.058v-68.024l-7.729-3.082c-6.071 22.249-15.532 49.078-29.28 68.721l.659 2.772.188-2.362c.341.026 14.591 1.137 36.162 1.975z" fill="none"/><path d="m446.758 579.922h34.423l-8.273-40.03h-37.011z" fill="#e2e2f6"/><path d="m83.799 579.922h34.422l10.861-40.03h-37.01z" fill="#e2e2f6"/><path d="m0 512.781h160v27.111h-160z" fill="#faf9f8"/><path d="m917.117 274.645c2.214-8.391 9.859-13.885 18.164-13.746l.003-.018-211.121.575.998 10.416c67.857 6.823 122.185 51.501 113.32 145.297l-54.866-11.33 33 6.815s-10.321 57.409-24.994 75.456c-2.444 3.006-5.044 5.707-7.785 8.137l.132 54.158h.032v29.518h82.206c1.53-51.49 10.212-117.076 25.859-195.211 12.442-62.137 24.927-109.596 25.052-110.067z" fill="#e2e2f6"/><path d="m939.706 261.492c-1.479-.391-2.961-.569-4.425-.594-8.306-.139-15.95 5.355-18.164 13.746-.125.472-12.61 47.931-25.052 110.066-15.647 78.135-24.329 143.721-25.859 195.211h36.985c3.878-121.139 49.196-294.053 49.668-295.841 2.606-9.868-3.283-19.982-13.153-22.588z" fill="#f3f2f1"/><path d="m615.271 410.952-30.821-12.29c-2.803 10.667-6.208 21.692-10.12 31.987l11.661 49.024c13.748-19.643 23.21-46.472 29.28-68.721z" fill="#785c43"/><path d="m686.99 563.404h-57.697l3.414 16.518h46.504c4.713-3.686 7.672-9.193 7.779-16.518z" fill="#262639"/><path d="m686.99 563.404c-.108 7.326-3.066 12.832-7.779 16.518h104.789v-16.518z" fill="#33344a"/><path d="m784 550.404h-.032l.032 13z" fill="#33344a"/><path d="m623 414.034v68.024c30.586 1.188 75.898 1.826 117.208-1.958 10.691-.982 19.152-4.463 25.866-12.705 14.517-17.82 17.209-37.558 17.541-61.557l54.866 11.33c8.865-93.796-45.463-138.474-113.32-145.297l.01.104c5.315.744 7.707 1.355 12.017 2.381.021.307.038.904.05 1.214.756 18.93-12.402 34.955-29.384 35.8-16.982.844-31.364-13.816-32.116-32.744-.061-1.586-.185-2.905-.06-4.442 5.044-1.227 8.452-1.938 14.777-2.567l.002-.046c-65.253 5.424-95.484 45.943-111.943 124.724l5.937 2.367 30.821 12.29z" fill="#464775"/><path d="m725.318 514.225v25.667h-100.884l4.859 23.512h154.707l-.032-13-.132-54.158c-11.184 9.915-24.8 15.154-40.626 16.605-5.92.543-11.9.993-17.892 1.374z" fill="#464775"/><path d="m675.678 274.185c-.126 1.537-.002 2.856.06 4.442.752 18.928 15.134 33.588 32.116 32.744 16.982-.845 30.14-16.87 29.384-35.8-.012-.311-.028-.908-.05-1.214-4.31-1.026-6.701-1.637-12.017-2.381l-.01-.104-.998-10.416-.864-9.025c-4.925.842-9.975 1.286-15.123 1.282-5.787-.004-11.452-.57-16.951-1.637l-.768 19.495-.002.046c-6.325.63-9.733 1.341-14.777 2.568z" fill="#785c43"/><path d="m616.254 152.821c.086-.82.139-1.626.145-2.402l.22.017.506-11.564c.009-.949.02-1.928.031-2.928-12.335 1.191-21.955 11.633-21.898 24.296.064 13.422 10.969 24.255 24.359 24.19h.016c-2.208-8.127-3.391-16.692-3.386-25.542z" fill="#785c43"/><path d="m786.285 143.118c-10.894-34.108-3.064-27.124-11.694-49.045-2.023-2.958-4.377-5.558-7.109-7.65-12.896-.533-24.456-1.194-34.818-1.907-7.658 1.931-13.996 3.014-22.611 3.034-10.402-.185-24.179-3.502-35.559-6.771-51.217-14.71-47.435 70.404-47.436 70.404l-10.005-.766s.008-5.046.071-11.547l-.506 11.564 9.785.749s-5.235 48.053 27.913 48.107c12.342.021 25.893-15.458 47.123-15.152 20.288.291 35.681 15.528 47.369 16.07 18.249.847 27.62-8.811 32.418-19.563-4.099-4.33-6.629-10.169-6.661-16.609-.041-8.864 4.663-16.641 11.72-20.918zm-118.326 33.561c-1.592 5.761-7.289 9.218-12.736 7.713-5.445-1.5-8.568-7.388-6.984-13.148 1.592-5.763 7.291-9.218 12.741-7.717 5.442 1.502 8.567 7.391 6.979 13.152zm84.31 0c-1.588 5.761-7.288 9.218-12.733 7.713-5.447-1.5-8.571-7.388-6.984-13.148 1.59-5.763 7.292-9.218 12.738-7.717 5.444 1.502 8.569 7.391 6.979 13.152z" fill="#785c43"/><path d="m800.891 152.805-.68.032c-.01.606 0 1.219.023 1.837l-.002 4.335c-.007 10.126-1.571 19.878-4.446 29.025 1.029.128 2.075.2 3.139.195 13.389-.062 24.195-10.99 24.135-24.415-.06-12.694-9.818-23.062-22.207-24.099.047 7.23.038 13.09.038 13.09z" fill="#785c43"/><path d="m786.888 144.988c-.207-.637-.408-1.26-.603-1.87-7.057 4.277-11.761 12.054-11.719 20.92.031 6.44 2.562 12.279 6.661 16.609 5.718-12.814 4.94-27.184 4.94-27.184l.656-.031c.012-.248.168-3.472.065-8.444z" fill="#785c43"/><path d="m723.299 252.431c34.083-5.828 62.016-31.081 72.487-64.396 2.875-9.147 4.439-18.898 4.446-29.025l.002-4.335c-.023-.618-.033-1.231-.023-1.837l-13.39.625s.001-.02.001-.031l-.656.031s.778 14.37-4.94 27.184c-4.798 10.752-14.169 20.41-32.418 19.563-11.688-.542-27.081-15.779-47.369-16.07-21.231-.306-34.781 15.173-47.123 15.152-33.148-.055-27.913-48.107-27.913-48.107l-9.785-.749-.22-.017c-.006.776-.059 1.582-.145 2.402l-.006 6.066c-.006 8.849 1.178 17.414 3.386 25.542 9.356 34.435 37.179 60.97 71.591 67.647 5.499 1.067 11.164 1.633 16.951 1.637 5.148.003 10.199-.44 15.124-1.282zm-54.307-49.179 61.272 2.48c-1.058 4.782-16.599 23.295-37.271 19.504-15.218-2.793-24.001-21.984-24.001-21.984z" fill="#4b3d31"/><path d="m788.291 149.231c-.498-1.479-.964-2.89-1.404-4.243.103 4.972-.053 8.196-.065 8.444 0 .01-.001.031-.001.031l13.39-.625.68-.032s.009-5.86-.039-13.09c-.056-8.48-.19-18.846-.51-23.868-.439-6.907-2.121-15.019-5.3-23.404.564 4.193.889 8.488 1.022 12.885 3.78 20.465 3.184 42.725-7.773 43.902z" fill="#3a2e24"/><path d="m774.591 94.073c-.861-2.187-1.882-4.655-3.106-7.487-1.357-.052-2.675-.108-4.003-.163 2.732 2.092 5.086 4.693 7.109 7.65z" fill="#3a2e24"/><path d="m617.053 150.419 10.005.766c.002 0-3.78-85.114 47.436-70.404 11.38 3.268 25.157 6.586 35.559 6.771 8.614-.02 14.953-1.103 22.611-3.034-96.975-6.667-89.736-17.652-104.602 33.267-3.661 35.267-8.491 22.87-10.437-1.586-.249 5.143-.39 12.905-.47 19.746-.012 1-.022 1.979-.031 2.928-.062 6.499-.071 11.546-.071 11.546z" fill="#3a2e24"/><path d="m660.979 163.528c-5.45-1.501-11.149 1.954-12.741 7.717-1.584 5.76 1.539 11.648 6.984 13.148 5.447 1.505 11.145-1.952 12.736-7.713 1.589-5.762-1.536-11.651-6.979-13.152z" fill="#21201f"/><path d="m745.289 163.528c-5.446-1.501-11.148 1.954-12.738 7.717-1.587 5.76 1.537 11.648 6.984 13.148 5.446 1.505 11.145-1.952 12.733-7.713 1.591-5.762-1.534-11.651-6.979-13.152z" fill="#21201f"/><path d="m730.265 205.732-61.272-2.48s8.783 19.191 24.001 21.984c20.672 3.791 36.213-14.722 37.271-19.504z" fill="#fff"/><path d="m740.208 480.1c-41.31 3.784-86.622 3.146-117.208 1.958-21.571-.838-35.821-1.949-36.161-1.976l-.188 2.362 4.9 20.601 109.166 2.4v7.335h24.602v1.444c5.991-.381 11.972-.832 17.892-1.374 15.826-1.451 29.442-6.69 40.626-16.605 2.741-2.43 5.341-5.131 7.785-8.137 14.672-18.047 24.994-75.456 24.994-75.456l-33-6.815c-.331 23.999-3.024 43.736-17.541 61.557-6.715 8.243-15.176 11.725-25.867 12.706z" fill="#785c43"/><path d="m624.434 539.892h-39.66l10.861 40.03h37.072l-3.414-16.518z" fill="#e1dfdd"/><path d="m252.273 579.922h37.073l10.861-40.03h-39.661z" fill="#edebe9"/><path d="m725.318 539.892v-27.111h-24.601v.001h-114.882v-.001h-425.835v27.111z" fill="#f3f2f1"/><path d="m591.551 503.046 2.315 9.735h-8.031v.001h114.882v-7.336z" fill="#c8c6c4"/><path d="m396.696 506.887h17.776c1.627 0 2.947 1.319 2.947 2.946 0 1.628-1.32 2.947-2.947 2.947h179.393l-2.315-9.735-4.9-20.601-.659-2.772-11.661-49.024-14.63-61.51h-196.803l22.056 92.732 20.796.015zm56.949-66.677h9.041l-2.515-10.576h14.747l-.587-2.469 1.459-.347.67 2.815h14.747l2.516 10.576h4.389v1.5h-4.032l2.516 10.576h-14.747l.587 2.468-1.459.348-.67-2.816h-14.747l-2.515-10.576h-9.397v-1.499z" fill="#c8c6c4"/><path d="m171.628 409.209c2.509-7.011 3.59-15.506 2.75-24.519-1.018-10.916-4.666-20.56-9.764-27.414-5.232-.886-9.708-4.554-12.371-9.732-2.266-.766-4.606-1.082-6.975-.861-13.998 1.306-23.664 20.437-21.586 42.732.683 7.324 2.553 14.072 5.246 19.794z" fill="#87cb9d"/><path d="m164.615 357.276c.801.136 1.613.23 2.445.23 9.626 0 17.428-9.381 17.428-20.954 0-11.572-7.802-20.953-17.428-20.953-3.169 0-6.131 1.033-8.691 2.809-.747 3.986-3.221 7.002-6.252 7.401-1.567 3.144-2.485 6.81-2.485 10.742 0 4.037.966 7.794 2.61 10.992 2.665 5.178 7.141 8.847 12.373 9.733z" fill="#5dab75"/><path d="m158.37 318.407c.15-.802.239-1.64.239-2.507 0-5.499-3.213-9.957-7.176-9.957s-7.176 4.458-7.176 9.957c0 5.5 3.213 9.957 7.176 9.957.232 0 .46-.018.686-.048 3.03-.399 5.504-3.415 6.251-7.402z" fill="#437854"/><path d="m158.742 506.489c0-.523.423-.947.947-.947.522 0 .946.424.946.947 0 .26-.105.495-.275.666h3.883v-31.581h4.873c-2.32-4.178-8.403-14.258-16.333-20.813v52.394h6.232c-.168-.171-.273-.406-.273-.666zm.947-34.226c.306 0 .553.247.553.552 0 .307-.247.554-.553.554-.305 0-.552-.247-.552-.554 0-.305.247-.552.552-.552z" fill="#c8c6c4"/><path d="m152.784 438.202c.124-.039.248-.078.384-.078.727 0 1.316.59 1.316 1.316s-.59 1.315-1.316 1.315c-.136 0-.26-.039-.384-.078v10.092c14.471 3.196 25.589 12.925 31.497 20.931-.22-21.458-10.247-31.306-17.948-35.251 7.138-.443 13.267 1.146 18.496 3.912v-31.153h-32.045zm23.704 12.855c.686 0 1.243.558 1.243 1.242 0 .688-.557 1.243-1.243 1.243s-1.241-.556-1.241-1.243c0-.684.556-1.242 1.241-1.242zm2.45-26.181c.178 0 .322.145.322.323 0 .177-.145.322-.322.322-.178 0-.322-.146-.322-.322-.001-.179.144-.323.322-.323zm-6.34-4.182c0 .578-.468 1.046-1.045 1.046-.578 0-1.046-.468-1.046-1.046s.468-1.046 1.046-1.046c.577 0 1.045.468 1.045 1.046z" fill="#c8c6c4"/><path d="m164.244 507.155h-3.883c-.172.173-.409.281-.672.281-.264 0-.501-.108-.673-.281h-6.232v5.626h32.045v-.016h-20.585z" fill="#c8c6c4"/><path d="m164.244 507.155h-3.883c-.172.173-.409.281-.672.281-.264 0-.501-.108-.673-.281h-6.232v5.626h32.045v-.016h-20.585z" fill="#484644" opacity=".1"/><path d="m248.767 475.574c-.048-1.455.942-3.084 2.698-4.837-1.406-12.546 4.209-28.389 10.643-43.015-13.161 6.754-21.903 17.641-27.637 28.117 1.981 8.3 4.733 15.485 6.615 19.735z" fill="#5dab75"/><path d="m212.197 475.574c-.822-2.485-1.202-5.601-.983-9.488.35-6.203 1.569-11.797 3.275-16.787-5.446-7.559-12.693-14.684-22.291-19.609 3.844 8.737 7.393 17.907 9.332 26.55 5.4 8.089 8.263 16.253 9.229 19.334z" fill="#5dab75"/><path d="m169.117 475.574h15.095c.056-1.329.081-2.623.068-3.873-5.908-8.006-17.026-17.735-31.497-20.931v3.99c7.931 6.556 14.014 16.636 16.334 20.814z" fill="#87cb9d"/><path d="m248.767 475.574h24.184c1.165-10.768 15.067-14.166 18.429-29.683-11.461 7.759-32.457 17.402-39.915 24.846-1.757 1.753-2.747 3.381-2.698 4.837z" fill="#437854"/><path d="m166.333 436.45c7.701 3.945 17.728 13.794 17.948 35.251.013 1.25-.012 2.543-.068 3.873h26.546c-.966-3.081-3.829-11.245-9.229-19.334-4.049-6.066-9.526-12.082-16.7-15.877-5.23-2.768-11.359-4.356-18.497-3.913z" fill="#437854"/><path d="m212.197 475.574h28.89c-1.882-4.25-4.634-11.435-6.615-19.735-2.758-11.558-4.01-25.247.711-36.066 0 0-14.07 10.138-20.694 29.525-1.705 4.991-2.925 10.584-3.275 16.787-.219 3.888.161 7.004.983 9.489z" fill="#87cb9d"/><path d="m236.985 475.574v26.743c.057-.006.113-.017.172-.017.93 0 1.684.753 1.684 1.684 0 .93-.754 1.684-1.684 1.684-.059 0-.115-.011-.172-.017v1.49h43.108v-31.566h-43.108zm18.246 9.624c.829 0 1.5.672 1.5 1.499 0 .829-.671 1.5-1.5 1.5-.827 0-1.499-.671-1.499-1.5 0-.827.672-1.499 1.499-1.499zm-3.972 17.101c-.465 0-.842-.377-.842-.843 0-.465.377-.842.842-.842.466 0 .843.377.843.842 0 .466-.377.843-.843.843zm10.139 4.052c-.393 0-.711-.318-.711-.711 0-.392.317-.71.711-.71.393 0 .71.317.71.71s-.317.711-.71.711zm5.68-12.182c-.447 0-.809-.362-.809-.81 0-.447.361-.81.809-.81.446 0 .81.362.81.81s-.364.81-.81.81zm6.071 7.288c-.465 0-.842-.376-.842-.842 0-.465.377-.842.842-.842s.841.377.841.842c0 .466-.376.842-.841.842zm-12.948-18.522c.409 0 .74.331.74.739 0 .407-.331.739-.74.739-.407 0-.737-.332-.737-.739 0-.408.33-.739.737-.739z" fill="#c8c6c4"/><path d="m164.244 475.574v31.566h72.741v-1.49c-.848-.087-1.512-.795-1.512-1.666 0-.872.664-1.579 1.512-1.666v-26.743h-72.741zm6.127 21.305c-.355 0-.643-.287-.643-.643 0-.355.287-.642.643-.642.355 0 .645.287.645.642s-.29.643-.645.643zm2.619-11.681c-.217 0-.393-.177-.393-.393s.176-.392.393-.392.393.176.393.392-.176.393-.393.393zm4.043 7.346c-.54 0-.978-.438-.978-.98 0-.541.438-.979.978-.979.541 0 .979.438.979.979s-.438.98-.979.98zm1.664 14.491c-.377 0-.686-.306-.686-.684 0-.379.309-.685.686-.685.378 0 .684.306.684.685 0 .378-.306.684-.684.684zm13.023-7.262c-.799 0-1.446-.647-1.446-1.446 0-.8.647-1.448 1.446-1.448.8 0 1.447.648 1.447 1.448 0 .799-.647 1.446-1.447 1.446zm22.949-5.604c-.448 0-.81-.362-.81-.81 0-.447.361-.81.81-.81.447 0 .809.362.809.81s-.362.81-.809.81zm10.798-1.625c-.938 0-1.698-.762-1.698-1.7 0-.939.76-1.699 1.698-1.699.939 0 1.699.761 1.699 1.699s-.761 1.7-1.699 1.7zm6.059-13.187c.407 0 .737.329.737.736 0 .408-.33.737-.737.737s-.736-.329-.736-.737c0-.407.329-.736.736-.736zm-38.844 1.474c.268 0 .485.217.485.485s-.218.484-.485.484-.484-.217-.484-.484c-.001-.269.217-.485.484-.485z" fill="#979593"/><path d="m236.985 507.139h43.108v5.626h-43.108z" fill="#c8c6c4"/><path d="m236.985 507.139h43.108v5.626h-43.108z" fill="#484644" opacity=".1"/><path d="m164.244 507.139v5.626h72.741v-5.626zm47.025 3.476c-.465 0-.841-.377-.841-.841 0-.465.376-.842.841-.842s.841.377.841.842c-.001.464-.377.841-.841.841z" fill="#979593"/><path d="m164.244 507.139v5.626h72.741v-5.626zm47.025 3.476c-.465 0-.841-.377-.841-.841 0-.465.376-.842.841-.842s.841.377.841.842c-.001.464-.377.841-.841.841z" fill="#484644" opacity=".1"/><path d="m211.269 508.932c-.465 0-.841.377-.841.842 0 .464.376.841.841.841s.841-.377.841-.841c-.001-.465-.377-.842-.841-.842z" fill="#605e5c"/><path d="m211.269 508.932c-.465 0-.841.377-.841.842 0 .464.376.841.841.841s.841-.377.841-.841c-.001-.465-.377-.842-.841-.842z" fill="#484644" opacity=".1"/><path d="m344.66 475.492 2.948 14.768c1.825-1.591 2.986-3.926 2.987-6.532.005-3.829-2.488-7.085-5.935-8.236z" fill="#f3f2f1"/><path d="m396.696 506.887 9.052-45.001-20.796-.015-43.018-.03 1.101 5.513c8.54.58 15.313 7.695 15.305 16.378-.003 6.422-3.721 11.977-9.106 14.672l1.694 8.483z" fill="#f3f2f1"/><path d="m358.341 483.732c.008-8.682-6.766-15.797-15.305-16.378-.367-.025-.732-.057-1.106-.057-9.056-.006-16.431 7.355-16.436 16.411-.008 9.057 7.354 16.431 16.411 16.438 2.635.002 5.119-.636 7.329-1.742 5.386-2.695 9.103-8.25 9.107-14.672zm-10.732 6.528c-1.527 1.331-3.518 2.144-5.698 2.142-4.785-.005-8.676-3.9-8.673-8.685.004-4.787 3.899-8.679 8.688-8.675.956 0 1.874.162 2.735.45 3.447 1.152 5.94 4.407 5.936 8.236-.002 2.606-1.163 4.941-2.988 6.532z" fill="#f3f2f1"/><path d="m414.473 512.781c1.627 0 2.947-1.319 2.947-2.947 0-1.627-1.32-2.946-2.947-2.946h-93.535c-1.627 0-2.947 1.319-2.947 2.946 0 1.628 1.32 2.947 2.947 2.947z" fill="#e2e2f6"/><path d="m628.063 117.783c14.866-50.919 7.626-39.933 104.602-33.267 10.362.712 21.921 1.374 34.818 1.907 1.328.055 2.646.111 4.003.163 1.224 2.832 2.245 5.3 3.106 7.487 8.63 21.921.8 14.937 11.694 49.045.195.61.396 1.233.603 1.87.44 1.353.906 2.764 1.404 4.243 10.956-1.177 11.553-23.437 7.773-43.903-.133-4.397-.458-8.692-1.022-12.885-5.195-38.62-30.67-68.585-113.129-89.936 28.898 35.742-25.756-15.079-11.449 8.634 9.084 13.316 4.123 10.436-15.954-.049 10.868 20.32.79 12.809-23.67 4.318 29.094 33.383-3.538-2.801 8.424 26.389-21.262-21.036-24.441 39.184-21.639 74.398 1.945 24.457 6.774 36.853 10.436 1.586z" fill="#3a2e24"/><path d="m630.473 118.448c2.469-8.46 4.601-17.116 7.933-25.291-.079.193-.163.372.031-.068.069-.157.138-.315.208-.471.17-.38.346-.759.527-1.134.309-.638.634-1.267.983-1.883.326-.575.671-1.14 1.041-1.688.167-.247.343-.488.516-.731.122-.171.533-.622-.048.055.11-.128.211-.265.319-.396.38-.457.782-.896 1.208-1.311.197-.192.399-.378.606-.559.209-.183 1.097-.789.277-.249.992-.654 1.939-1.274 3.019-1.783.379-.179.189-.063-.133.052.16-.057.317-.128.477-.189.294-.112.591-.216.89-.313.628-.204 1.265-.376 1.908-.523.692-.159 1.391-.283 2.092-.394.121-.019.788-.108.284-.043-.506.065.178-.02.299-.034.392-.045.785-.084 1.178-.119 3.863-.335 7.76-.218 11.627-.016 12.58.66 25.12 2.168 37.662 3.305 19.865 1.802 39.765 3.178 59.693 4.067 2.804.125 5.609.244 8.414.352-.72-.413-1.439-.825-2.159-1.238 2.087 4.839 4.119 9.736 5.665 14.779.448 1.461.849 2.937 1.169 4.431.122.571.233 1.145.332 1.721.05.295.095.59.142.886.023.144.04.289.062.433-.129-.834-.018-.136.004.046.281 2.368.438 4.749.726 7.117.465 3.81 1.182 7.572 2.085 11.302 1.747 7.214 4.007 14.301 6.369 21.334.317.942 1.3 1.97 2.411 1.835 7.19-.871 10.273-7.727 11.451-14.132 1.679-9.133.918-18.636-.411-27.76-.172-1.177-.358-2.352-.56-3.524-.224-1.303-.256-2.583-.323-3.903-.145-2.863-.38-5.721-.725-8.567-.356-2.935-.803-5.858-1.396-8.755-1.005-4.913-2.413-9.747-4.287-14.401-4.04-10.028-10.087-19.039-17.712-26.701-9.364-9.409-20.697-16.73-32.5-22.691-16.304-8.234-33.727-14.175-51.292-19.064-2.646-.736-5.298-1.446-7.957-2.136-2.586-.671-3.934 2.32-2.432 4.178 2.529 3.131 4.785 5.811 6.962 9.373.263.43.503.87.738 1.315.279.527.046.242.013-.007.016.124.09.31.143.425.232.503-.026-.566-.022-.277.005.379.123-.526.173-.648.332-.806 1.038-1.205 1.842-1.252-.619.036.716.259-.039-.01-.123-.044-.251-.086-.376-.123-.668-.197.423.222.041.026-.78-.4-1.563-.779-2.324-1.218-2.021-1.167-3.977-2.446-5.942-3.703-2.053-1.313-4.106-2.634-6.234-3.825-1.752-.981-3.701-2.102-5.744-2.257-2.453-.186-4.098 1.747-3.781 4.127.395 2.967 2.418 5.693 4.004 8.12.631.965 1.25 1.94 1.814 2.946.214.381.411.768.61 1.157.085.166.293.739.035.04.054.146.121.288.165.437.036.123.065.271.116.389.183.425-.015-.239-.015-.236.037.599.194-.556.228-.611.278-.457.816-.785 1.007-.834-.165.042.783-.103.304-.052-.463.049-.114-.099.165.048-.565-.297-1.422-.362-2.038-.592-.178-.067-.354-.139-.531-.207-.569-.218.156.075-.27-.11-.549-.238-1.094-.485-1.637-.739-2.837-1.326-5.614-2.781-8.391-4.226-1.799-.936-3.596-1.878-5.394-2.817-2.227-1.163-4.617 1.177-3.42 3.42 1.542 2.891 2.912 5.361 3.729 8.19.124.428.196.86.298 1.292-.204-.864-.077.263-.034.528-.106-.651.117-.49-.015-.151.023-.059.316-.589.055-.179.124-.195.458-.5.131-.207.617-.554.351-.259.094-.128.719-.366.431-.18.171-.11-.534.144.58.03.109-.011-.38-.033-.785-.024-1.168-.044.527.028.295.049-.056-.02-.21-.041-.419-.081-.628-.127-.563-.124-1.12-.275-1.674-.436-2.866-.834-5.656-1.932-8.444-2.992-4.457-1.695-8.911-3.392-13.415-4.959-2.535-.882-3.942 2.446-2.432 4.178 3.62 4.155 7.321 8.265 10.755 12.578.089.112.176.227.267.337.274.333-.347-.471-.038-.049.156.213.318.421.47.638.148.211.315.66.51.818-.193-.156-.235-.62-.239-.958-.008-.897.738-1.956 1.726-2.227.074-.02 1.04-.205 1.11-.004-.006-.019-.249-.06-.276-.072-3.118-1.342-7.853-2.589-9.114 1.869-.453 1.601-.186 3.364.149 4.956.535 2.543 1.483 5.001 2.462 7.4 1.393-.811 2.786-1.622 4.178-2.432-2.673-2.624-6.188-5.264-10.143-5.073-3.625.175-6.362 2.637-8.255 5.548-2.322 3.57-3.617 7.853-4.613 11.957-1.345 5.544-2.115 11.232-2.676 16.903-1.248 12.614-1.351 25.365-.768 38.02.281 6.109.729 12.222 1.525 18.287.585 4.455 1.107 9.211 2.946 13.362.58 1.31 1.486 2.633 2.946 3.034 1.784.49 3.331-.645 4.205-2.112.982-1.648 1.474-3.64 1.903-5.492.76-3.279 1.235-6.622 1.675-9.957.295-2.238.551-4.481.786-6.726.141-1.345-1.25-2.5-2.5-2.5-1.469 0-2.359 1.151-2.5 2.5-.629 6.011-1.141 12.35-3.036 18.13-.112.341-.24.674-.364 1.01.25-.678-.096.167-.224.414-.052.1-.164.213-.195.318-.093.313.365-.435.168-.211-.396.451.165-.061.306-.118.356-.142.604-.21 1.135-.071-.252-.066.671.341.353.152-.331-.197.553.454.237.185-.489-.415.219.48-.033-.025-.111-.223-.247-.439-.364-.66-.192-.365-.095-.234.022.08-.056-.152-.122-.299-.177-.452-.132-.366-.257-.734-.371-1.106-.257-.838-.47-1.69-.664-2.545-.505-2.229-.873-4.49-1.189-6.753-.712-5.085-1.182-11.053-1.477-16.51-.638-11.824-.633-23.719.248-35.53.409-5.491.954-10.497 1.944-15.787.43-2.298.935-4.584 1.568-6.836.293-1.043.614-2.079.973-3.102.151-.43.308-.857.473-1.281.086-.221.175-.44.264-.66.109-.267-.049.116-.059.139.065-.149.129-.299.197-.447.356-.781.735-1.55 1.166-2.292.184-.317.377-.63.58-.936.105-.158.214-.312.323-.468.061-.087.126-.17.188-.256.191-.266-.313.382-.105.137.445-.523.922-.98 1.407-1.462.394-.392-.361.21-.028.014.131-.077.252-.178.38-.26.251-.16.539-.269.784-.432.042-.028-.555.166-.077.037.139-.037.275-.093.414-.131.139-.039.284-.06.422-.101.534-.158-.326-.016-.048.001.269.016.554-.021.826-.016.153.003.304.031.456.038-.497-.024-.375-.072.002.025.3.077.598.152.892.254.166.057.329.122.492.186-.516-.204-.148-.065.121.077.737.389 1.433.827 2.103 1.322.343.253-.272-.242.2.163.185.159.375.314.559.475.393.345.772.704 1.145 1.07 1.646 1.616 5.169-.003 4.178-2.432-.913-2.239-1.786-4.52-2.344-6.877-.092-.389-.159-.782-.242-1.172-.078-.366-.034-.286 0 .071-.017-.181-.042-.36-.056-.542-.02-.277-.02-.551-.022-.828-.004-.844.006.347.004-.148-.002-.43.178-.5-.058.007.223-.478.148-.203-.087.047.353-.375-.59.348-.141.099.323-.179-.764.219-.14.073.467-.11-.747-.043-.215.027.135.018.35.033.483.014.095-.014-.729-.163-.126-.006.172.045.345.08.516.128 1.248.35 2.474 1.185 3.798 1.204 1.836.027 3.118-1.703 2.643-3.455-.233-.86-.821-1.609-1.35-2.304-3.652-4.806-7.767-9.284-11.729-13.83-.811 1.393-1.622 2.786-2.432 4.178 4.407 1.534 8.768 3.19 13.128 4.85 3.03 1.153 6.066 2.37 9.195 3.233 2.051.566 4.638 1.193 6.634.112 2.174-1.178 2.451-3.584 2.018-5.79-.716-3.647-2.754-7.155-4.482-10.396-1.14 1.14-2.28 2.28-3.42 3.42 5.719 2.987 11.432 6.389 17.502 8.634 1.525.564 3.407 1.097 4.932.248 1.679-.935 1.917-2.929 1.344-4.602-1.331-3.883-4.3-6.937-6.031-10.625-.059-.126-.112-.256-.174-.381-.218-.445.155.513.06.142-.058-.227-.172-.447-.24-.673-.053-.175-.08-.363-.139-.535-.149-.437-.007.73.026.102.029-.545-.153.657-.042.277-.096.332-.129.421-.468.772.183-.189-.685.442-.265.215-.709.382-.665.26-.426.193.402-.113-.646.086-.422.053.116-.017.243-.001.359.009-.137-.012-.717-.168-.157 0 .347.104.686.217 1.029.333.619.209-.588-.283.091.038.218.103.437.202.653.308.479.235.951.485 1.418.742 2.177 1.198 4.271 2.545 6.364 3.883 2.052 1.311 4.091 2.651 6.203 3.864 1.519.872 3.284 1.963 5.092 1.958 1.64-.004 2.944-1.285 3.013-2.912.043-1.004-.358-1.932-.789-2.815-1.504-3.087-3.858-5.849-5.954-8.536-.839-1.076-1.691-2.142-2.548-3.204-.811 1.393-1.622 2.786-2.432 4.178 17.768 4.61 35.447 10.115 52.134 17.835 12.06 5.58 23.817 12.406 33.521 21.086 7.941 7.104 14.006 14.734 18.623 24.365.242.505.479 1.013.71 1.524.13.287.257.574.383.862.056.128.414.97.201.461.484 1.155.939 2.323 1.366 3.5.818 2.255 1.531 4.548 2.146 6.866 1.532 5.772 2.445 11.679 2.901 17.63.209 2.73.17 5.486.643 8.183.408 2.324.759 4.657 1.032 7 .538 4.611.841 9.262.741 13.905-.081 3.749-.396 7.486-1.409 11.104-.456 1.629-.825 2.65-1.588 3.988-.158.278-.325.55-.503.816-.108.161-.217.321-.333.476.062-.082.28-.333-.03.029-.191.223-.387.442-.596.65-.126.125-.879.748-.464.443-.447.328-.929.616-1.439.835.498-.215-.234.057-.389.101-.139.039-1.165.221-.609.154.804.612 1.607 1.224 2.411 1.835-2.161-6.434-4.226-12.911-5.909-19.488-.562-2.197-1.079-4.406-1.517-6.631-.174-.883-.335-1.768-.481-2.656-.065-.398-.128-.796-.187-1.195-.028-.189-.055-.379-.082-.568-.107-.737.021.19-.033-.243-.662-5.285-.928-10.519-2.433-15.665-1.682-5.75-4.047-11.301-6.415-16.794-.346-.802-1.354-1.207-2.159-1.238-20.918-.811-41.811-2.116-62.665-3.935-13.488-1.177-26.957-2.752-40.469-3.634-7.065-.461-14.934-1.091-21.752 1.285-5.513 1.921-9.275 6.035-11.77 11.213-3.662 7.597-5.673 15.997-8.004 24.063-.389 1.347-.78 2.695-1.173 4.041-.903 3.101 3.92 4.423 4.821 1.335z" fill="#3a2e24"/><path d="m474.917 429.634h-14.747l2.515 10.576h14.747z" fill="#979593"/><path d="m481.846 452.286h14.747l-2.516-10.576h-14.747z" fill="#979593"/><path d="m493.721 440.21-2.516-10.576h-14.747l2.516 10.576z" fill="#979593"/><path d="m463.042 441.71 2.515 10.576h14.747l-2.515-10.576z" fill="#979593"/><path d="m152.784 512.781v-72.102c-.535-.167-.932-.648-.932-1.238s.396-1.072.932-1.239v-28.994h-39.551v103.572h39.551zm-6.899-43.699c0-.128.102-.23.23-.23s.23.103.23.23c0 .128-.102.231-.23.231-.128-.001-.23-.103-.23-.231zm-9.312-19.496c.658 0 1.191.534 1.191 1.19 0 .658-.533 1.192-1.191 1.192-.657 0-1.19-.534-1.19-1.192 0-.656.533-1.19 1.19-1.19zm.978 33.963c.835 0 1.512.676 1.512 1.512 0 .835-.677 1.511-1.512 1.511s-1.512-.676-1.512-1.511c0-.836.677-1.512 1.512-1.512zm-3.23-66.235c.725 0 1.311.588 1.311 1.312s-.587 1.312-1.311 1.312c-.725 0-1.312-.588-1.312-1.312s.588-1.312 1.312-1.312zm0 84.401c0 .676-.549 1.225-1.225 1.225-.677 0-1.226-.549-1.226-1.225 0-.677.549-1.226 1.226-1.226.677.001 1.225.55 1.225 1.226zm-4.644-24.106c.448 0 .812.363.812.812 0 .448-.363.811-.812.811-.448 0-.812-.363-.812-.811 0-.449.364-.812.812-.812zm-2.784-41.357c.611 0 1.106.495 1.106 1.106 0 .61-.495 1.106-1.106 1.106s-1.107-.496-1.107-1.106c0-.611.495-1.106 1.107-1.106zm-1.66 10.658c.306 0 .553.247.553.552 0 .306-.247.554-.553.554-.305 0-.553-.248-.553-.554.001-.305.249-.552.553-.552zm-1.198 41.556c0 .306-.247.553-.554.553-.305 0-.552-.247-.552-.553 0-.305.247-.553.552-.553.307.001.554.249.554.553zm-.554 9.012c0 .178-.145.323-.322.323-.179 0-.323-.145-.323-.323 0-.179.145-.323.323-.323s.322.144.322.323zm-1.013-43.655c.611 0 1.105.495 1.105 1.107 0 .611-.494 1.106-1.105 1.106-.612 0-1.107-.495-1.107-1.106 0-.612.495-1.107 1.107-1.107z" fill="#979593"/><path d="m477.789 441.71 2.515 10.576.67 2.816 1.459-.347-.587-2.469-2.516-10.576h18.779v-1.5h-19.135l-2.516-10.576-.669-2.815-1.459.347.587 2.468 2.515 10.576h-23.787v1.5z" fill="#c8c6c4"/><path d="m178.938 425.521c.178 0 .322-.146.322-.322 0-.179-.145-.323-.322-.323-.178 0-.322.145-.322.323-.001.177.144.322.322.322z" fill="#959596"/><path d="m273.149 499.773c-.465 0-.842.377-.842.842 0 .466.377.842.842.842s.841-.376.841-.842c0-.465-.376-.842-.841-.842z" fill="#959596"/><path d="m261.398 504.93c-.393 0-.711.317-.711.71s.317.711.711.711c.393 0 .71-.318.71-.711 0-.392-.317-.71-.71-.71z" fill="#959596"/><path d="m267.078 492.55c-.447 0-.809.362-.809.81 0 .447.361.81.809.81.446 0 .81-.362.81-.81 0-.447-.364-.81-.81-.81z" fill="#959596"/><path d="m170.507 420.694c0 .578.468 1.046 1.046 1.046.577 0 1.045-.468 1.045-1.046s-.468-1.046-1.045-1.046c-.578 0-1.046.468-1.046 1.046z" fill="#959596"/><path d="m176.488 453.543c.686 0 1.243-.556 1.243-1.243 0-.685-.557-1.242-1.243-1.242s-1.241.558-1.241 1.242c0 .687.556 1.243 1.241 1.243z" fill="#959596"/><path d="m159.689 473.369c.306 0 .553-.247.553-.554 0-.305-.247-.552-.553-.552-.305 0-.552.247-.552.552 0 .307.247.554.552.554z" fill="#959596"/><path d="m237.157 505.667c.93 0 1.684-.754 1.684-1.684 0-.931-.754-1.684-1.684-1.684-.059 0-.115.011-.172.017v3.333c.058.006.113.018.172.018z" fill="#959596"/><path d="m159.69 505.542c-.525 0-.947.424-.947.947 0 .26.105.495.274.666.172.173.409.281.673.281.263 0 .5-.108.672-.281.169-.171.275-.406.275-.666-.001-.524-.425-.947-.947-.947z" fill="#959596"/><path d="m260.201 484.414c.409 0 .74-.332.74-.739 0-.408-.331-.739-.74-.739-.407 0-.737.331-.737.739 0 .407.33.739.737.739z" fill="#959596"/><path d="m154.484 439.441c0-.727-.59-1.316-1.316-1.316-.136 0-.26.039-.384.078v2.477c.124.038.248.078.384.078.727-.002 1.316-.591 1.316-1.317z" fill="#959596"/><path d="m251.259 500.615c-.465 0-.842.377-.842.842 0 .466.377.843.842.843.466 0 .843-.377.843-.843 0-.465-.377-.842-.843-.842z" fill="#959596"/><path d="m255.231 488.197c.829 0 1.5-.671 1.5-1.5 0-.827-.671-1.499-1.5-1.499-.827 0-1.499.672-1.499 1.499 0 .829.672 1.5 1.499 1.5z" fill="#959596"/><g fill="#605e5c"><path d="m137.551 486.572c.835 0 1.512-.676 1.512-1.511 0-.836-.677-1.512-1.512-1.512s-1.512.676-1.512 1.512c0 .835.677 1.511 1.512 1.511z"/><path d="m122.836 497.478c0 .178.145.323.323.323s.322-.145.322-.323c0-.179-.145-.323-.322-.323-.178 0-.323.144-.323.323z"/><path d="m122.93 488.466c0 .306.247.553.552.553.307 0 .554-.247.554-.553 0-.305-.247-.553-.554-.553-.305.001-.552.249-.552.553z"/><path d="m125.233 448.015c.306 0 .553-.248.553-.554 0-.305-.247-.552-.553-.552-.305 0-.553.247-.553.552.001.306.249.554.553.554z"/><path d="m126.893 438.464c.611 0 1.106-.496 1.106-1.106 0-.611-.495-1.106-1.106-1.106s-1.107.495-1.107 1.106c0 .61.495 1.106 1.107 1.106z"/><path d="m129.677 479.232c.448 0 .812-.363.812-.811s-.363-.812-.812-.812c-.448 0-.812.363-.812.812 0 .448.364.811.812.811z"/><path d="m151.853 439.441c0 .59.396 1.071.932 1.238v-2.477c-.536.167-.932.649-.932 1.239z"/><path d="m146.346 469.082c0-.128-.102-.23-.23-.23s-.23.103-.23.23c0 .128.102.231.23.231.127-.001.23-.103.23-.231z"/><path d="m136.573 451.968c.658 0 1.191-.534 1.191-1.192 0-.656-.533-1.19-1.191-1.19-.657 0-1.19.534-1.19 1.19 0 .658.533 1.192 1.19 1.192z"/><path d="m131.871 501.715c0 .676.549 1.225 1.226 1.225.676 0 1.225-.549 1.225-1.225 0-.677-.549-1.226-1.225-1.226-.677.001-1.226.55-1.226 1.226z"/><path d="m133.009 418.627c0 .724.588 1.312 1.312 1.312.725 0 1.311-.588 1.311-1.312 0-.725-.587-1.312-1.311-1.312-.724-.001-1.312.587-1.312 1.312z"/><path d="m225.467 489.144c-.938 0-1.698.761-1.698 1.699s.76 1.7 1.698 1.7c.939 0 1.699-.762 1.699-1.7s-.761-1.699-1.699-1.699z"/><path d="m177.033 490.584c-.54 0-.978.438-.978.979 0 .542.438.98.978.98.541 0 .979-.438.979-.98 0-.541-.438-.979-.979-.979z"/><path d="m178.697 505.667c-.377 0-.686.306-.686.685 0 .378.309.684.686.684.378 0 .684-.306.684-.684 0-.38-.306-.685-.684-.685z"/><path d="m122.468 456.036c.611 0 1.105-.495 1.105-1.106s-.494-1.107-1.105-1.107c-.612 0-1.107.495-1.107 1.107 0 .611.495 1.106 1.107 1.106z"/><path d="m172.99 484.414c-.217 0-.393.176-.393.392s.176.393.393.393.393-.177.393-.393c0-.217-.176-.392-.393-.392z"/><path d="m192.682 481.8c.268 0 .485-.217.485-.484 0-.269-.218-.485-.485-.485s-.484.217-.484.485c-.001.268.217.484.484.484z"/><path d="m170.371 495.593c-.355 0-.643.287-.643.642 0 .356.287.643.643.643.355 0 .645-.287.645-.643 0-.355-.29-.642-.645-.642z"/><path d="m231.526 480.831c.407 0 .737-.329.737-.737 0-.407-.33-.736-.737-.736s-.736.329-.736.736c0 .408.329.737.736.737z"/><path d="m235.474 503.983c0 .871.664 1.579 1.512 1.666v-3.333c-.848.088-1.512.795-1.512 1.667z"/><path d="m214.669 492.55c-.448 0-.81.362-.81.81 0 .447.361.81.81.81.447 0 .809-.362.809-.81 0-.447-.362-.81-.809-.81z"/><path d="m191.72 496.879c-.799 0-1.446.648-1.446 1.448 0 .799.647 1.446 1.446 1.446.8 0 1.447-.647 1.447-1.446 0-.8-.647-1.448-1.447-1.448z"/></g></svg>