<svg enable-background="new 0 0 245.349 243.023" viewBox="0 0 245.349 243.023" xmlns="http://www.w3.org/2000/svg"><path d="m178.202 102.573c3.623 8.53 5.46 17.593 5.46 26.933 0 38.031-30.943 68.974-68.978 68.974s-68.978-30.943-68.978-68.974c0-38.035 30.943-68.98 68.978-68.98 9.342 0 18.405 1.839 26.939 5.464 2.054.873 3.119 3.508 2.25 5.565-.425 1.004-1.347 1.902-2.361 2.299-1.027.401-2.323.362-3.325-.095-7.37-3.127-15.318-4.739-23.504-4.739-33.351 0-60.484 27.135-60.484 60.486 0 33.349 27.133 60.484 60.484 60.484s60.484-27.135 60.484-60.484c0-8.192-1.61-16.137-4.786-23.618-.421-.988-.375-2.234.028-3.23.401-.996 1.237-1.922 2.226-2.341.952-.403 2.161-.433 3.123-.079 1.049.387 2.009 1.306 2.444 2.335zm-65.853-9.565v-.004c-19.221 1.217-34.278 17.251-34.278 36.502 0 20.185 16.424 36.609 36.613 36.609 19.251 0 35.283-15.057 36.498-34.242.077-1.071-.324-2.272-1.027-3.082-.768-.889-2.025-1.466-3.198-1.466-2.135 0-4.117 1.849-4.251 3.979-.934 14.76-13.243 26.321-28.022 26.321-15.505 0-28.118-12.615-28.118-28.118 0-14.78 11.56-27.089 26.275-28.022 1.085-.057 2.24-.614 2.959-1.428.701-.794 1.112-1.977 1.057-3.034-.061-1.181-.721-2.432-1.661-3.153-.783-.603-1.82-.9-2.847-.862zm118.475-39.594-27.354 27.354c8.192 14.898 12.557 31.665 12.557 48.738 0 55.877-45.463 101.34-101.344 101.34s-101.343-45.463-101.343-101.34c0-55.883 45.463-101.346 101.344-101.346 17.074 0 33.84 4.365 48.738 12.556l27.352-27.352c1.053-1.057 2.598-1.448 4.034-1.011 1.426.433 2.501 1.616 2.793 3.078l5.191 25.965 25.965 5.191c1.462.292 2.645 1.367 3.078 2.793.433 1.429.044 2.979-1.011 4.034zm-33.61 33.61-.72.72c-.766.766-1.798 1.185-2.86 1.185-.265 0-.529-.026-.794-.079l-26.246-5.251-48.908 48.91c-.759.759-1.93 1.241-3.003 1.241-1 0-2.106-.427-2.849-1.094-.812-.731-1.294-1.904-1.335-2.995-.043-1.09.358-2.299 1.112-3.09l48.977-48.977-5.251-26.246c-.267-1.327.15-2.698 1.106-3.655l.726-.726c-13.006-6.717-27.623-10.313-42.486-10.313-51.197 0-92.85 41.652-92.85 92.852 0 51.195 41.652 92.85 92.85 92.85s92.85-41.654 92.85-92.85c0-14.815-3.569-29.388-10.319-42.482z" fill="#ffffff" stroke="ffffff"/></svg>
