<svg width="20" height="22" viewBox="0 0 20 22" fill="none" xmlns="http://www.w3.org/2000/svg">
<path d="M8.25 13.75C8.25 14.3372 8.12825 14.8994 7.88477 15.4365C7.64844 15.9665 7.31185 16.4284 6.875 16.8223V21.7422L4.125 20.3672L1.375 21.7422V16.8223C0.938151 16.4284 0.597982 15.9665 0.354492 15.4365C0.118164 14.8994 0 14.3372 0 13.75C0 13.1842 0.107422 12.6507 0.322266 12.1494C0.537109 11.6481 0.830729 11.2113 1.20312 10.8389C1.58268 10.4593 2.01953 10.1621 2.51367 9.94727C3.01497 9.73242 3.55208 9.625 4.125 9.625C4.69076 9.625 5.22428 9.736 5.72559 9.95801C6.22689 10.1729 6.66374 10.4665 7.03613 10.8389C7.40853 11.2113 7.70215 11.6481 7.91699 12.1494C8.139 12.6507 8.25 13.1842 8.25 13.75ZM4.125 16.5C4.50456 16.5 4.85905 16.4284 5.18848 16.2852C5.52506 16.1419 5.81869 15.945 6.06934 15.6943C6.31999 15.4437 6.51693 15.1536 6.66016 14.8242C6.80339 14.4876 6.875 14.1296 6.875 13.75C6.875 13.3704 6.80339 13.016 6.66016 12.6865C6.51693 12.3499 6.31999 12.0563 6.06934 11.8057C5.81869 11.555 5.52506 11.3581 5.18848 11.2148C4.85905 11.0716 4.50456 11 4.125 11C3.74544 11 3.38737 11.0716 3.05078 11.2148C2.72135 11.3581 2.43132 11.555 2.18066 11.8057C1.93001 12.0563 1.73307 12.3499 1.58984 12.6865C1.44661 13.016 1.375 13.3704 1.375 13.75C1.375 14.1296 1.44661 14.4876 1.58984 14.8242C1.73307 15.1536 1.93001 15.4437 2.18066 15.6943C2.43132 15.945 2.72135 16.1419 3.05078 16.2852C3.38737 16.4284 3.74544 16.5 4.125 16.5ZM5.5 17.6387C5.06315 17.7962 4.62272 17.875 4.17871 17.875C3.67741 17.875 3.20117 17.7962 2.75 17.6387V19.5078L4.125 18.8203L5.5 19.5078V17.6387ZM19.25 5.89746V22H8.25V20.625H17.875V6.875H12.375V1.375H2.75V8.07812C2.51367 8.13542 2.27734 8.20703 2.04102 8.29297C1.81185 8.37891 1.58984 8.47917 1.375 8.59375V0H13.3525L19.25 5.89746ZM16.8975 5.5L13.75 2.35254V5.5H16.8975Z" fill="white"/>
</svg>
