<svg width="20" height="22" viewBox="0 0 20 22" fill="none" xmlns="http://www.w3.org/2000/svg">
<path d="M12.9121 12.9229C13.8861 13.2594 14.7633 13.7321 15.5439 14.3408C16.3317 14.9424 16.9977 15.6406 17.542 16.4355C18.0934 17.2305 18.516 18.1006 18.8096 19.0459C19.1032 19.9912 19.25 20.9759 19.25 22H17.875C17.875 20.8255 17.6637 19.737 17.2412 18.7344C16.8258 17.7246 16.2493 16.8509 15.5117 16.1133C14.7741 15.3757 13.9004 14.7992 12.8906 14.3838C11.888 13.9613 10.7995 13.75 9.625 13.75C8.85872 13.75 8.12109 13.8467 7.41211 14.04C6.70312 14.2334 6.04069 14.5091 5.4248 14.8672C4.81608 15.2181 4.26107 15.6442 3.75977 16.1455C3.26562 16.6396 2.83952 17.1947 2.48145 17.8105C2.13053 18.4193 1.8584 19.0781 1.66504 19.7871C1.47168 20.4961 1.375 21.2337 1.375 22H0C0 20.9688 0.150391 19.984 0.451172 19.0459C0.751953 18.1006 1.17806 17.234 1.72949 16.4463C2.28092 15.6585 2.94694 14.9639 3.72754 14.3623C4.5153 13.7607 5.39258 13.2845 6.35938 12.9336C5.80078 12.6328 5.29948 12.2676 4.85547 11.8379C4.41146 11.4082 4.0319 10.932 3.7168 10.4092C3.40885 9.87923 3.16895 9.31706 2.99707 8.72266C2.83236 8.12109 2.75 7.50521 2.75 6.875C2.75 5.92253 2.92904 5.03092 3.28711 4.2002C3.64518 3.3623 4.13574 2.63184 4.75879 2.00879C5.38184 1.38574 6.10872 0.895182 6.93945 0.537109C7.77734 0.179036 8.67253 0 9.625 0C10.5775 0 11.4691 0.179036 12.2998 0.537109C13.1377 0.895182 13.8682 1.38574 14.4912 2.00879C15.1143 2.63184 15.6048 3.3623 15.9629 4.2002C16.321 5.03092 16.5 5.92253 16.5 6.875C16.5 7.50521 16.4141 8.11751 16.2422 8.71191C16.0775 9.30632 15.8376 9.86491 15.5225 10.3877C15.2145 10.9105 14.8385 11.3903 14.3945 11.8271C13.9577 12.2568 13.4635 12.6221 12.9121 12.9229ZM4.125 6.875C4.125 7.63411 4.26823 8.34668 4.55469 9.0127C4.84831 9.67871 5.24219 10.2624 5.73633 10.7637C6.23763 11.2578 6.82129 11.6517 7.4873 11.9453C8.15332 12.2318 8.86589 12.375 9.625 12.375C10.3841 12.375 11.0967 12.2318 11.7627 11.9453C12.4287 11.6517 13.0088 11.2578 13.5029 10.7637C14.0042 10.2624 14.3981 9.67871 14.6846 9.0127C14.9782 8.34668 15.125 7.63411 15.125 6.875C15.125 6.11589 14.9782 5.40332 14.6846 4.7373C14.3981 4.07129 14.0042 3.49121 13.5029 2.99707C13.0088 2.49577 12.4287 2.10189 11.7627 1.81543C11.0967 1.52181 10.3841 1.375 9.625 1.375C8.86589 1.375 8.15332 1.52181 7.4873 1.81543C6.82129 2.10189 6.23763 2.49577 5.73633 2.99707C5.24219 3.49121 4.84831 4.07129 4.55469 4.7373C4.26823 5.40332 4.125 6.11589 4.125 6.875Z" fill="white"/>
</svg>
